<svg width="72" height="24" viewBox="0 0 72 24" fill="none" xmlns="http://www.w3.org/2000/svg">
<g clip-path="url(#clip0_479_1098)">
<path d="M72 12C72 5.37258 66.6274 0 60 0C53.3726 0 48 5.37258 48 12C48 17.9895 52.3882 22.954 58.125 23.8542V15.4688H55.0781V12H58.125V9.35625C58.125 6.34875 59.9166 4.6875 62.6576 4.6875C63.9701 4.6875 65.3438 4.92188 65.3438 4.92188V7.875H63.8306C62.34 7.875 61.875 8.80008 61.875 9.75V12H65.2031L64.6711 15.4688H61.875V23.8542C67.6118 22.954 72 17.9895 72 12Z" fill="#1877F2"/>
<path d="M64.6711 15.4688L65.2031 12H61.875V9.75C61.875 8.80102 62.34 7.875 63.8306 7.875H65.3438V4.92188C65.3438 4.92188 63.9705 4.6875 62.6576 4.6875C59.9166 4.6875 58.125 6.34875 58.125 9.35625V12H55.0781V15.4688H58.125V23.8542C59.3674 24.0486 60.6326 24.0486 61.875 23.8542V15.4688H64.6711Z" fill="white"/>
</g>
<path d="M1.63636 21.0022H5.45456V11.7295L2.95434 7.36365L0 7.63857V19.3659C0 20.2699 0.732281 21.0022 1.63636 21.0022Z" fill="#0085F7"/>
<path d="M18.5449 21.0022H22.3631C23.2672 21.0022 23.9995 20.2699 23.9995 19.3659V7.63857L21.0494 7.36365L18.545 11.7295V21.0022H18.5449Z" fill="#00A94B"/>
<path d="M18.5456 4.63856L16.3027 8.91839L18.5456 11.7295L24.0001 7.63856V5.45676C24.0001 3.43448 21.6915 2.27948 20.0728 3.49312L18.5456 4.63856Z" fill="#FFBC00"/>
<path fill-rule="evenodd" clip-rule="evenodd" d="M5.45407 11.7295L3.31689 7.21494L5.45407 4.63855L11.9995 9.54763L18.5449 4.63855V11.7295L11.9995 16.6386L5.45407 11.7295Z" fill="#FF4131"/>
<path d="M0 5.45676V7.63856L5.45456 11.7295V4.63856L3.92728 3.49312C2.30864 2.27948 0 3.43448 0 5.45676H0Z" fill="#E51C19"/>
<defs>
<clipPath id="clip0_479_1098">
<rect width="24" height="24" fill="white" transform="translate(48)"/>
</clipPath>
</defs>
</svg>
